<svg xmlns="http://www.w3.org/2000/svg" viewBox="0 0 64 64" width="64" height="64">
  <rect width="64" height="64" rx="14" fill="#efe6d6"/>
  <rect x="3" y="3" width="58" height="58" rx="12" fill="none" stroke="#e0922f" stroke-width="2" opacity="0.35"/>
  <path fill="#e0922f" d="M27 12c-2.8 0-5 2.2-5 5 0 .9.2 1.6.5 2.3.4.9-.3 1.9-1.3 1.9H15c-1.7 0-3 1.3-3 3v5.2c0 1 1 1.7 1.9 1.3.7-.3 1.4-.5 2.3-.5 2.8 0 5 2.2 5 5s-2.2 5-5 5c-.9 0-1.6-.2-2.3-.5-.9-.4-1.9.3-1.9 1.3V47c0 1.7 1.3 3 3 3h6.2c1 0 1.7-1 1.3-1.9-.3-.7-.5-1.4-.5-2.3 0-2.8 2.2-5 5-5s5 2.2 5 5c0 .9-.2 1.6-.5 2.3-.4.9.3 1.9 1.3 1.9H46c1.7 0 3-1.3 3-3v-6.2c0-1-1-1.7-1.9-1.3-.7.3-1.4.5-2.3.5-2.8 0-5-2.2-5-5s2.2-5 5-5c.9 0 1.6.2 2.3.5.9.4 1.9-.3 1.9-1.3V24c0-1.7-1.3-3-3-3h-6.7c-1 0-1.7-1-1.3-1.9.3-.7.5-1.4.5-2.3 0-2.8-2.2-5-5-5z"/>
  <path fill="#c4621d" d="M44 33a5 5 0 0 1-5-5c0-.9.2-1.6.5-2.3.4-.9-.3-1.9-1.3-1.9H39v17.5c0 1 1 1.7 1.9 1.3.7-.3 1.4-.5 2.3-.5l.8.04A5 5 0 0 0 44 33z" opacity="0.55"/>
</svg>
